<svg width="155" height="161" viewBox="0 0 155 161" fill="none" xmlns="http://www.w3.org/2000/svg">
<path fill-rule="evenodd" clip-rule="evenodd" d="M101.43 44.6416C101.43 34.8262 89.9684 26.8755 75.8237 26.8755C72.6703 26.8755 69.6515 27.2717 66.8595 27.9973L58.5 23.0516L77.4651 11.6584L132.022 44.4442C136.166 41.954 139.881 39.7239 142.898 37.9059C129.303 15.1636 105.095 0.0131226 77.4651 0.0131226C49.8817 0.0131226 25.6913 15.1222 12.0911 37.8113C15.215 39.6932 18.9335 41.9273 23.0133 44.3761L39.9001 34.2274L50.8222 40.8123C50.4314 42.0474 50.2213 43.3238 50.2213 44.6416C50.2213 54.4529 61.6841 62.4089 75.8237 62.4089C89.9684 62.4089 101.43 54.4529 101.43 44.6416ZM145.456 42.5275L134.55 49.0817V69.6033L122.648 76.6271C121.782 75.5747 120.771 74.6731 119.61 73.9702C111.455 69.0405 99.0877 75.3666 91.9801 88.0896C84.8828 100.823 85.7285 115.136 93.8829 120.068C102.036 124.993 114.398 118.672 121.501 105.944C123.042 103.193 124.205 100.37 125 97.5768L134.55 91.8202V114.583L80.1585 147.271V160.275C121.441 158.8 154.475 123.519 154.475 80.1816C154.475 66.5663 151.208 53.754 145.456 42.5275ZM60.2721 121.006C60.8026 120.777 61.3138 120.529 61.8135 120.22C69.9667 115.285 70.8188 100.979 63.7163 88.2457C56.6139 75.5227 44.2451 69.1979 36.0919 74.1262C27.9387 79.0492 27.0918 93.3674 34.1942 106.101C35.2411 107.971 36.3969 109.701 37.6385 111.275V124.955L20.375 114.583V48.951L9.51946 42.4275C3.73805 53.6766 0.443726 66.525 0.443726 80.1816C0.443726 123.607 33.6292 158.942 75.0331 160.286V147.423L60.2721 138.555V121.006Z" fill="#000"/>
</svg>
